<svg id="menu_book_black_24dp" xmlns="http://www.w3.org/2000/svg" width="86" height="86" viewBox="0 0 86 86">
  <g id="Grupo_2" data-name="Grupo 2">
    <rect id="Ret창ngulo_13" data-name="Ret창ngulo 13" width="86" height="86" fill="none"/>
    <rect id="Ret창ngulo_14" data-name="Ret창ngulo 14" width="86" height="86" fill="none"/>
  </g>
  <g id="Grupo_3" data-name="Grupo 3" transform="translate(3.599 16.194)">
    <path id="Caminho_13" data-name="Caminho 13" d="M60.377,4.5C53.36,4.5,45.8,5.939,40.585,9.9,35.367,5.939,27.81,4.5,20.792,4.5A38.935,38.935,0,0,0,5.39,7.343,7.332,7.332,0,0,0,1,14V54.593a7.179,7.179,0,0,0,8.925,6.981,44.444,44.444,0,0,1,10.868-1.3c5.614,0,11.588.936,16.41,3.311a7.4,7.4,0,0,0,6.729,0c4.822-2.411,10.8-3.311,16.41-3.311a44.444,44.444,0,0,1,10.868,1.3,7.146,7.146,0,0,0,8.925-6.981V14a7.332,7.332,0,0,0-4.39-6.657A38.641,38.641,0,0,0,60.377,4.5Zm12.6,45.811a3.634,3.634,0,0,1-4.318,3.527,45.373,45.373,0,0,0-8.277-.72c-6.118,0-14.934,2.339-19.792,5.4V17.1c4.858-3.059,13.675-5.4,19.792-5.4A45.654,45.654,0,0,1,70.094,12.7a3.65,3.65,0,0,1,2.879,3.527Z" transform="translate(-1 -4.5)" fill="#5f00ba"/>
    <path id="Caminho_14" data-name="Caminho 14" d="M15.922,16.208a2.694,2.694,0,0,1-.828-5.254A47.873,47.873,0,0,1,34.383,9.334a2.7,2.7,0,0,1-.612,5.362A42.537,42.537,0,0,0,16.75,16.1,7.481,7.481,0,0,1,15.922,16.208Z" transform="translate(30.788 7.22)" fill="#5f00ba"/>
    <path id="Caminho_15" data-name="Caminho 15" d="M15.922,18.867a2.694,2.694,0,0,1-.828-5.254,47.815,47.815,0,0,1,19.289-1.619,2.7,2.7,0,1,1-.612,5.362,42.537,42.537,0,0,0-17.022,1.4A3.488,3.488,0,0,1,15.922,18.867Z" transform="translate(30.788 14.132)" fill="#5f00ba"/>
    <path id="Caminho_16" data-name="Caminho 16" d="M15.922,21.528a2.694,2.694,0,0,1-.828-5.254,47.815,47.815,0,0,1,19.289-1.619,2.7,2.7,0,1,1-.612,5.362,42.537,42.537,0,0,0-17.022,1.4A3.488,3.488,0,0,1,15.922,21.528Z" transform="translate(30.788 21.044)" fill="#5f00ba"/>
  </g>
</svg>
