<svg id="event_black_24dp" xmlns="http://www.w3.org/2000/svg" width="79.314" height="79.314" viewBox="0 0 79.314 79.314">
  <path id="Caminho_11" data-name="Caminho 11" d="M0,0H79.314V79.314H0Z" fill="none"/>
  <path id="Caminho_12" data-name="Caminho 12" d="M45.962,38.352H36.048a3.314,3.314,0,0,0-3.3,3.3v9.914a3.314,3.314,0,0,0,3.3,3.3h9.914a3.314,3.314,0,0,0,3.3-3.3V41.657A3.314,3.314,0,0,0,45.962,38.352Zm0-33.048v3.3H19.524V5.3a3.3,3.3,0,1,0-6.61,0v3.3H9.61a6.58,6.58,0,0,0-6.576,6.61L3,61.486A6.608,6.608,0,0,0,9.61,68.1H55.876a6.629,6.629,0,0,0,6.61-6.61V15.219a6.629,6.629,0,0,0-6.61-6.61h-3.3V5.3a3.3,3.3,0,0,0-6.61,0Zm6.61,56.181H12.914a3.314,3.314,0,0,1-3.3-3.3V25.133H55.876V58.181A3.314,3.314,0,0,1,52.572,61.486Z" transform="translate(6.914 4.61)" fill="#5f00ba"/>
</svg>
