<svg id="task_alt_black_24dp" xmlns="http://www.w3.org/2000/svg" width="86" height="86" viewBox="0 0 86 86">
  <rect id="Retângulo_22" data-name="Retângulo 22" width="86" height="86" fill="none"/>
  <path id="Caminho_214" data-name="Caminho 214" d="M71.117,15.93,35.283,51.763a3.569,3.569,0,0,1-5.053,0L20.09,41.622a3.569,3.569,0,0,1,0-5.053h0a3.569,3.569,0,0,1,5.052,0l7.6,7.6L66.028,10.877a3.569,3.569,0,0,1,5.052,0h0A3.537,3.537,0,0,1,71.117,15.93ZM51.337,4.642a35.824,35.824,0,1,0,21.106,42.5A34.655,34.655,0,0,0,73.2,32.019,3.6,3.6,0,0,0,67.1,30.084h0a3.607,3.607,0,0,0-.967,3.189,26.943,26.943,0,0,1-1.863,15.265C60.116,58.249,51.086,65.38,40.587,66.347A28.676,28.676,0,1,1,50.907,12.31a3.589,3.589,0,0,0,4.192-.645h0a3.594,3.594,0,0,0-.86-5.733C53.272,5.5,52.3,5.036,51.337,4.642Z" transform="translate(5.172 5.176)" fill="#f827ff"/>
</svg>
