<svg id="supervised_user_circle_black_24dp" xmlns="http://www.w3.org/2000/svg" width="81.627" height="81.627" viewBox="0 0 81.627 81.627">
  <path id="Caminho_219" data-name="Caminho 219" d="M0,0H81.627V81.627H0Z" fill="none"/>
  <path id="Caminho_220" data-name="Caminho 220" d="M37.736,29.185a10.2,10.2,0,1,0-10.2,10.2A10.233,10.233,0,0,0,37.736,29.185Zm-10.2,3.4a3.4,3.4,0,1,1,3.4-3.4A3.411,3.411,0,0,1,27.532,32.586Zm22.107,6.8a6.8,6.8,0,1,0-6.8-6.8A6.779,6.779,0,0,0,49.64,39.388ZM36,2.01A34.011,34.011,0,1,0,70.012,36.021,34.024,34.024,0,0,0,36,2.01ZM15.084,53.4c2.313-1.837,7.721-3.775,12.448-3.775.238,0,.51.034.782.034a16.41,16.41,0,0,1,4.421-6.326,30.779,30.779,0,0,0-5.2-.544c-4.421,0-11.53,1.531-16.087,4.864A26.814,26.814,0,0,1,8.792,35.987,27.209,27.209,0,1,1,60.659,47.449,23.946,23.946,0,0,0,49.64,44.49c-5.17,0-15.305,2.755-15.305,9.183v9.455A26.987,26.987,0,0,1,15.084,53.4Z" transform="translate(4.778 4.826)" fill="#f827ff"/>
</svg>
