<svg id="location_searching_black_24dp_1_" data-name="location_searching_black_24dp (1)" xmlns="http://www.w3.org/2000/svg" width="54" height="54" viewBox="0 0 54 54">
  <path id="Caminho_223" data-name="Caminho 223" d="M0,0H54V54H0Z" fill="none"/>
  <path id="Caminho_224" data-name="Caminho 224" d="M45.865,23.5A20.237,20.237,0,0,0,28,5.635V1H23.5V5.635A20.237,20.237,0,0,0,5.635,23.5H1V28H5.635A20.237,20.237,0,0,0,23.5,45.865V50.5H28V45.865A20.237,20.237,0,0,0,45.865,28H50.5V23.5ZM25.75,41.5A15.75,15.75,0,1,1,41.5,25.75,15.738,15.738,0,0,1,25.75,41.5Z" transform="translate(1.25 1.25)" fill="#d9d9d9"/>
</svg>
