<svg xmlns="http://www.w3.org/2000/svg" width="68.93" height="55.144" viewBox="0 0 68.93 55.144">
  <path id="movie_black_24dp" d="M57.144,4l6.273,12.545a.867.867,0,0,1-.758,1.241H55.834a3.367,3.367,0,0,1-3.067-1.9L46.8,4H39.911l6.273,12.545a.867.867,0,0,1-.758,1.241H38.6a3.367,3.367,0,0,1-3.067-1.9L29.572,4H22.679l6.273,12.545a.867.867,0,0,1-.758,1.241H21.369a3.456,3.456,0,0,1-3.1-1.9L12.339,4H8.893A6.913,6.913,0,0,0,2,10.893V52.251a6.913,6.913,0,0,0,6.893,6.893H64.037a6.913,6.913,0,0,0,6.893-6.893V7.446A3.457,3.457,0,0,0,67.483,4Z" transform="translate(-2 -4)" fill="#f827ff"/>
</svg>
